<svg xmlns="http://www.w3.org/2000/svg" version="1.1" xmlns:xlink="http://www.w3.org/1999/xlink" width="512"
    height="512" x="0" y="0" viewBox="0 0 512 512" style="enable-background:new 0 0 512 512" xml:space="preserve"
    class="">
    <g>
        <circle cx="333" cy="78" r="12" fill="#000000" opacity="1" data-original="#000000" class=""></circle>
        <path
            d="M503.953 73.367a23.838 23.838 0 0 0-16.952-7.013h-.05l-84.836.175-18.011-23.08C363.01 16.418 331.272.93 296.994.93l-2.464.005a115.02 115.02 0 0 0-34.12 5.23c-.533-.016-1.066-.038-1.601-.038-13.528 0-26.246 5.268-35.811 14.833l-115.02 115.02c-18.625 18.626-22.346 47.515-9.046 70.252a58.061 58.061 0 0 0 7.095 9.658c-8.645 10.138-16.983 20.559-24.944 31.292C50.212 288.8 23.479 336.228 1.627 388.145a8 8 0 0 0 7.37 11.105c3.122 0 6.089-1.84 7.376-4.898 21.356-50.738 47.451-97.046 77.56-137.637 7.778-10.485 15.924-20.665 24.37-30.566a58.009 58.009 0 0 0 13.284 6.117 84.535 84.535 0 0 0 25.365 3.896c26.002 0 51.133-11.996 67.214-33.383 20.397-27.127 35.559-55.43 45.063-84.126a8 8 0 0 0-5.078-10.11 8 8 0 0 0-10.109 5.079c-8.958 27.044-23.313 53.805-42.665 79.542-17.244 22.936-47.379 32.517-74.993 23.838a41.883 41.883 0 0 1-23.642-18.847c-9.628-16.461-6.934-37.376 6.551-50.86l115.02-115.02c6.542-6.544 15.243-10.147 24.496-10.147 9.253 0 17.954 3.603 24.497 10.147a8 8 0 0 0 11.314 0 8 8 0 0 0 0-11.314 51.443 51.443 0 0 0-4.42-3.922 99.915 99.915 0 0 1 4.36-.103l2.433-.005c29.314 0 56.46 13.246 74.497 36.361l20.42 26.167a7.999 7.999 0 0 0 6.307 3.079h.016l38.131-.08v8.646c0 8.795 5.64 16.467 14.035 19.09L495 124.13v9.432c0 11.924-8.553 21.899-20.337 23.72l-129.885 20.062c-.707.11-1.382.337-2.027.625-18.114-.316-33.996-7.48-49.865-22.513a8 8 0 0 0-11.004 11.615c14.912 14.128 30.556 22.569 47.469 25.614-6.72 8.833-13.155 18.914-19.372 30.348l.36-8.117a13.216 13.216 0 0 0-21.777-10.645l-19.326 16.47c-35.301 30.088-63.369 68.633-81.166 111.467s-25.307 89.92-21.72 136.167l.464 5.977a99.226 99.226 0 0 1-1.605 27.082 8 8 0 0 0 6.28 9.41 7.998 7.998 0 0 0 9.411-6.28 115.21 115.21 0 0 0 1.866-31.45l-.464-5.977c-3.393-43.74 3.71-88.275 20.544-128.79 16.833-40.514 43.379-76.97 76.77-105.428l14.455-12.32-1.948 43.818c-.03.677-.01 1.346.038 2.008-.007.032-.017.063-.023.095-1.071 5.696-2.763 10.48-5.095 14.436l-9.958 9.958c-3.687 2.104-8.03 3.467-13.08 4.12a8 8 0 0 0 2.052 15.868c18.585-2.402 31.622-12.36 38.27-29.032 1.324.426 2.709.716 4.15.811 9.195.604 23.982 1.592 38.724 2.581 23.633 1.586 43.008 19.783 46.071 43.269l2.372 18.181a17.524 17.524 0 0 0 16.543 15.247l20.104.973c5.378.26 10.251 2.927 13.37 7.317s4.031 9.87 2.506 15.034l-9.046 30.622a30.064 30.064 0 0 1-25.716 21.437l-63.634 6.788a27.026 27.026 0 0 0-21.175 14.47 26.939 26.939 0 0 0 .372 25.564 244.612 244.612 0 0 1 10.875 22.015 8.002 8.002 0 0 0 7.344 4.822 8 8 0 0 0 7.337-11.182 260.724 260.724 0 0 0-11.578-23.44c-1.824-3.278-1.877-7.074-.145-10.414 1.744-3.364 4.903-5.524 8.667-5.925l63.635-6.788c18.608-1.984 34.06-14.865 39.362-32.814l9.046-30.623c2.926-9.904 1.174-20.413-4.807-28.833-5.98-8.418-15.326-13.533-25.64-14.031l-20.105-.973a1.536 1.536 0 0 1-1.45-1.336l-2.371-18.18c-4.046-31.028-29.644-55.069-60.866-57.164-14.75-.99-29.545-1.978-38.746-2.583a1.511 1.511 0 0 1-1.419-1.587l.142-3.184a7.954 7.954 0 0 0 1.996-2.764c12.432-28.694 25.457-50.47 39.763-66.454l127.098-19.632c19.64-3.034 33.894-19.66 33.894-39.532V90.354a23.84 23.84 0 0 0-7.047-16.987zm-48.782 21.555a3.983 3.983 0 0 1-2.807-3.818v-8.678l34.62-.072H487c2.134 0 4.14.83 5.651 2.338A7.947 7.947 0 0 1 495 90.354v17.014z"
            fill="#000000" opacity="1" data-original="#000000" class=""></path>
        <circle cx="343" cy="339" r="12" fill="#000000" opacity="1" data-original="#000000" class=""></circle>
    </g>
</svg>